{
  "accessors": [
    {
      "bufferView": 0,
      "componentType": 5126,
      "count": 1084,
      "type": "VEC3",
      "max": [
        0.460144579410553,
        0.34333944320678711,
        0.4601447582244873
      ],
      "min": [
        -0.4601445198059082,
        -0.96261554956436157,
        -0.46014437079429626
      ]
    },
    {
      "bufferView": 1,
      "componentType": 5126,
      "count": 1084,
      "type": "VEC3",
      "max": [
        1.0,
        1.0,
        1.0
      ],
      "min": [
        -1.0,
        -1.0,
        -1.0
      ]
    },
    {
      "bufferView": 2,
      "componentType": 5126,
      "count": 1084,
      "type": "VEC4",
      "max": [
        0.97904461622238159,
        1.0,
        1.0,
        -1.0
      ],
      "min": [
        -1.0,
        -1.0,
        -1.0,
        -1.0
      ]
    },
    {
      "bufferView": 3,
      "componentType": 5126,
      "count": 1084,
      "type": "VEC2",
      "max": [
        1.0,
        1.0
      ],
      "min": [
        0.0,
        0.0
      ]
    },
    {
      "bufferView": 4,
      "componentType": 5125,
      "count": 1050,
      "type": "SCALAR",
      "max": [
        375.0
      ],
      "min": [
        0.0
      ]
    },
    {
      "bufferView": 5,
      "componentType": 5125,
      "count": 1434,
      "type": "SCALAR",
      "max": [
        885.0
      ],
      "min": [
        376.0
      ]
    },
    {
      "bufferView": 6,
      "componentType": 5125,
      "count": 576,
      "type": "SCALAR",
      "max": [
        1083.0
      ],
      "min": [
        886.0
      ]
    }
  ],
  "asset": {
    "generator": "UnityGLTF (2019.1.0b1)",
    "version": "2.0"
  },
  "buffers": [
    {
      "uri": "Unity2Skfb.bin",
      "byteLength": 64272
    }
  ],
  "bufferViews": [
    {
      "buffer": 0,
      "byteLength": 13008
    },
    {
      "buffer": 0,
      "byteOffset": 13008,
      "byteLength": 13008
    },
    {
      "buffer": 0,
      "byteOffset": 26016,
      "byteLength": 17344
    },
    {
      "buffer": 0,
      "byteOffset": 43360,
      "byteLength": 8672
    },
    {
      "buffer": 0,
      "byteOffset": 52032,
      "byteLength": 4200
    },
    {
      "buffer": 0,
      "byteOffset": 56232,
      "byteLength": 5736
    },
    {
      "buffer": 0,
      "byteOffset": 61968,
      "byteLength": 2304
    }
  ],
  "images": [
    {
      "uri": "186290_batt_Body_Normal.png",
      "name": "batt_Body_Normal"
    },
    {
      "uri": "12690_batt_Body_AlbedoTransparency.jpg",
      "name": "batt_Body_AlbedoTransparency"
    },
    {
      "uri": "186294_batt_Body_MetallicSmoothness.png",
      "name": "batt_Body_MetallicSmoothness"
    },
    {
      "uri": "186298_batt_SteelTop_Normal.png",
      "name": "batt_SteelTop_Normal"
    },
    {
      "uri": "12696_batt_SteelTop_AlbedoTransparency.jpg",
      "name": "batt_SteelTop_AlbedoTransparency"
    },
    {
      "uri": "186302_batt_SteelTop_MetallicSmoothness.png",
      "name": "batt_SteelTop_MetallicSmoothness"
    },
    {
      "uri": "186304_batt_Stripe_Normal.png",
      "name": "batt_Stripe_Normal"
    },
    {
      "uri": "12684_batt_Stripe_AlbedoTransparency.jpg",
      "name": "batt_Stripe_AlbedoTransparency"
    },
    {
      "uri": "186308_batt_Stripe_MetallicSmoothness.png",
      "name": "batt_Stripe_MetallicSmoothness"
    }
  ],
  "materials": [
    {
      "pbrMetallicRoughness": {
        "baseColorTexture": {
          "index": 1
        },
        "metallicFactor": 0.0,
        "roughnessFactor": 0.5,
        "metallicRoughnessTexture": {
          "index": 2
        }
      },
      "normalTexture": {
        "index": 0
      },
      "name": "BattBody"
    },
    {
      "pbrMetallicRoughness": {
        "baseColorFactor": [
          1.0,
          0.995282948,
          0.995282948,
          1.0
        ],
        "baseColorTexture": {
          "index": 4
        },
        "metallicFactor": 0.0,
        "roughnessFactor": 0.5,
        "metallicRoughnessTexture": {
          "index": 5
        }
      },
      "normalTexture": {
        "index": 3
      },
      "name": "BattSteel"
    },
    {
      "pbrMetallicRoughness": {
        "baseColorTexture": {
          "index": 7
        },
        "metallicFactor": 0.0,
        "roughnessFactor": 0.5,
        "metallicRoughnessTexture": {
          "index": 8
        }
      },
      "normalTexture": {
        "index": 6
      },
      "name": "BattStripe"
    }
  ],
  "meshes": [
    {
      "primitives": [
        {
          "attributes": {
            "POSITION": 0,
            "NORMAL": 1,
            "TANGENT": 2,
            "TEXCOORD_0": 3
          },
          "indices": 4,
          "material": 0
        },
        {
          "attributes": {
            "POSITION": 0,
            "NORMAL": 1,
            "TANGENT": 2,
            "TEXCOORD_0": 3
          },
          "indices": 5,
          "material": 1
        },
        {
          "attributes": {
            "POSITION": 0,
            "NORMAL": 1,
            "TANGENT": 2,
            "TEXCOORD_0": 3
          },
          "indices": 6,
          "material": 2
        }
      ],
      "name": "batt"
    }
  ],
  "nodes": [
    {
      "mesh": 0,
      "rotation": [
        0.0,
        -0.209806979,
        0.0,
        -0.9777429
      ],
      "scale": [
        2.00000024,
        2.0,
        2.00000024
      ],
      "translation": [
        4.251974,
        0.893999934,
        4.8166666
      ],
      "name": "batt"
    }
  ],
  "samplers": [
    {
      "minFilter": 9729
    }
  ],
  "scene": 0,
  "scenes": [
    {
      "nodes": [
        0
      ],
      "name": "Unity2Skfb"
    }
  ],
  "textures": [
    {
      "sampler": 0,
      "source": 0,
      "name": "batt_Body_Normal"
    },
    {
      "sampler": 0,
      "source": 1,
      "name": "batt_Body_AlbedoTransparency"
    },
    {
      "sampler": 0,
      "source": 2,
      "name": "batt_Body_MetallicSmoothness"
    },
    {
      "sampler": 0,
      "source": 3,
      "name": "batt_SteelTop_Normal"
    },
    {
      "sampler": 0,
      "source": 4,
      "name": "batt_SteelTop_AlbedoTransparency"
    },
    {
      "sampler": 0,
      "source": 5,
      "name": "batt_SteelTop_MetallicSmoothness"
    },
    {
      "sampler": 0,
      "source": 6,
      "name": "batt_Stripe_Normal"
    },
    {
      "sampler": 0,
      "source": 7,
      "name": "batt_Stripe_AlbedoTransparency"
    },
    {
      "sampler": 0,
      "source": 8,
      "name": "batt_Stripe_MetallicSmoothness"
    }
  ]
}